<svg xmlns="http://www.w3.org/2000/svg" xmlns:xlink="http://www.w3.org/1999/xlink" width="1232pt" height="619pt" viewBox="0.00 0.00 1232.26 618.80">
<g id="graph0" class="graph" transform="scale(1 1) rotate(0) translate(4 614.8)">
<title>G</title>
<polygon fill="white" stroke="none" points="-4,4 -4,-614.8 1228.26,-614.8 1228.26,4 -4,4"/>
<text text-anchor="middle" x="612.13" y="-588.8" font-family="Times,serif" font-size="20.00">Guild Wars 2 Client Network Protocol Flow (Game Server)</text>
<g id="clust1" class="cluster">
<title>cluster_incoming_smsg</title>
<polygon fill="none" stroke="blue" points="8,-8 8,-570.8 564,-570.8 564,-8 8,-8"/>
<text text-anchor="middle" x="286" y="-554.2" font-family="Times,serif" font-size="14.00">Incoming (SMSG) Pipeline</text>
</g>
<g id="clust2" class="cluster">
<title>cluster_outgoing_cmsg</title>
<polygon fill="none" stroke="green" points="728,-8 728,-459.2 1168,-459.2 1168,-8 728,-8"/>
<text text-anchor="middle" x="948" y="-442.6" font-family="Times,serif" font-size="14.00">Outgoing (CMSG) Pipeline</text>
</g>
<g id="clust3" class="cluster">
<title>cluster_high_level_dispatchers</title>
<polygon fill="none" stroke="purple" points="572,-494 572,-570.8 1088,-570.8 1088,-494 572,-494"/>
<text text-anchor="middle" x="830" y="-554.2" font-family="Times,serif" font-size="14.00">High-Level Dispatchers &amp; Cross-Pipeline</text>
</g>
<!-- RawNetworkInput -->
<g id="node1" class="node">
<title>RawNetworkInput</title>
<polygon fill="lightgreen" stroke="black" points="421.6,-538 294.4,-538 294.4,-502 421.6,-502 421.6,-538"/>
<text text-anchor="middle" x="358" y="-515.8" font-family="Times,serif" font-size="14.00">Raw Network Input</text>
</g>
<!-- MsgConn_Dispatch -->
<g id="node2" class="node">
<title>MsgConn_Dispatch</title>
<polygon fill="lightgreen" stroke="black" points="449,-426.4 321,-426.4 321,-390.4 449,-390.4 449,-426.4"/>
<text text-anchor="middle" x="385" y="-404.2" font-family="Times,serif" font-size="14.00">MsgConn_Dispatch</text>
</g>
<!-- RawNetworkInput&#45;&gt;MsgConn_Dispatch -->
<g id="edge1" class="edge">
<title>RawNetworkInput-&gt;MsgConn_Dispatch</title>
<path fill="none" stroke="black" d="M371.3,-501.57C371.3,-501.57 371.3,-438.37 371.3,-438.37"/>
<polygon fill="black" stroke="black" points="374.8,-438.37 371.3,-428.37 367.8,-438.37 374.8,-438.37"/>
<text text-anchor="middle" x="388.53" y="-471.4" font-family="Times,serif" font-size="14.00">Raw Bytes</text>
</g>
<!-- MsgConn_ClientRecvEncrypt -->
<g id="node3" class="node">
<title>MsgConn_ClientRecvEncrypt</title>
<polygon fill="lightgreen" stroke="black" points="201.77,-337.6 16.23,-337.6 16.23,-301.6 201.77,-301.6 201.77,-337.6"/>
<text text-anchor="middle" x="109" y="-315.4" font-family="Times,serif" font-size="14.00">MsgConn_ClientRecvEncrypt</text>
</g>
<!-- MsgConn_Dispatch&#45;&gt;MsgConn_ClientRecvEncrypt -->
<g id="edge2" class="edge">
<title>MsgConn_Dispatch-&gt;MsgConn_ClientRecvEncrypt</title>
<path fill="none" stroke="black" d="M320.64,-408.4C239.08,-408.4 109,-408.4 109,-408.4 109,-408.4 109,-349.51 109,-349.51"/>
<polygon fill="black" stroke="black" points="112.5,-349.51 109,-339.51 105.5,-349.51 112.5,-349.51"/>
<text text-anchor="middle" x="187.51" y="-359.8" font-family="Times,serif" font-size="14.00">Handshake Packet</text>
</g>
<!-- Msg_DispatchStream -->
<g id="node4" class="node">
<title>Msg_DispatchStream</title>
<polygon fill="lightgreen" stroke="black" points="358.05,-337.6 219.95,-337.6 219.95,-301.6 358.05,-301.6 358.05,-337.6"/>
<text text-anchor="middle" x="289" y="-315.4" font-family="Times,serif" font-size="14.00">Msg::DispatchStream</text>
</g>
<!-- MsgConn_Dispatch&#45;&gt;Msg_DispatchStream -->
<g id="edge3" class="edge">
<title>MsgConn_Dispatch-&gt;Msg_DispatchStream</title>
<path fill="none" stroke="black" d="M339.52,-390C339.52,-390 339.52,-349.49 339.52,-349.49"/>
<polygon fill="black" stroke="black" points="343.02,-349.49 339.52,-339.49 336.02,-349.49 343.02,-349.49"/>
<text text-anchor="middle" x="345.35" y="-359.8" font-family="Times,serif" font-size="14.00">Framed Messages</text>
</g>
<!-- MsgRaw_RecvInvalidError -->
<g id="node10" class="node">
<title>MsgRaw_RecvInvalidError</title>
<polygon fill="lightcoral" stroke="black" points="556.04,-337.6 375.96,-337.6 375.96,-301.6 556.04,-301.6 556.04,-337.6"/>
<text text-anchor="middle" x="466" y="-315.4" font-family="Times,serif" font-size="14.00">Msg::Raw::RecvInvalidError</text>
</g>
<!-- MsgConn_Dispatch&#45;&gt;MsgRaw_RecvInvalidError -->
<g id="edge4" class="edge">
<title>MsgConn_Dispatch-&gt;MsgRaw_RecvInvalidError</title>
<path fill="none" stroke="red" stroke-dasharray="1,5" d="M412.48,-390C412.48,-390 412.48,-349.49 412.48,-349.49"/>
<polygon fill="red" stroke="red" points="415.98,-349.49 412.48,-339.49 408.98,-349.49 415.98,-349.49"/>
<text text-anchor="middle" x="490.06" y="-359.8" font-family="Times,serif" font-size="14.00">Invalid Frame/Packet</text>
</g>
<!-- MsgUnpack_ParseWithSchema -->
<g id="node5" class="node">
<title>MsgUnpack_ParseWithSchema</title>
<polygon fill="lightgreen" stroke="black" points="394.42,-229.6 199.58,-229.6 199.58,-193.6 394.42,-193.6 394.42,-229.6"/>
<text text-anchor="middle" x="297" y="-207.4" font-family="Times,serif" font-size="14.00">MsgUnpack::ParseWithSchema</text>
</g>
<!-- Msg_DispatchStream&#45;&gt;MsgUnpack_ParseWithSchema -->
<g id="edge5" class="edge">
<title>Msg_DispatchStream-&gt;MsgUnpack_ParseWithSchema</title>
<path fill="none" stroke="black" d="M312.02,-301.28C312.02,-301.28 312.02,-241.52 312.02,-241.52"/>
<polygon fill="black" stroke="black" points="315.52,-241.52 312.02,-231.52 308.52,-241.52 315.52,-241.52"/>
<text text-anchor="middle" x="327.35" y="-261.4" font-family="Times,serif" font-size="14.00">Generic Path</text>
</g>
<!-- HardcodedParsing -->
<g id="node6" class="node">
<title>HardcodedParsing</title>
<polygon fill="lightgreen" stroke="black" points="178.46,-229.6 55.54,-229.6 55.54,-193.6 178.46,-193.6 178.46,-229.6"/>
<text text-anchor="middle" x="117" y="-207.4" font-family="Times,serif" font-size="14.00">Hardcoded Parsing</text>
</g>
<!-- Msg_DispatchStream&#45;&gt;HardcodedParsing -->
<g id="edge6" class="edge">
<title>Msg_DispatchStream-&gt;HardcodedParsing</title>
<path fill="none" stroke="black" d="M265.98,-301.14C265.98,-296.4 265.98,-292.6 265.98,-292.6 265.98,-292.6 117,-292.6 117,-292.6 117,-292.6 117,-241.49 117,-241.49"/>
<polygon fill="black" stroke="black" points="120.5,-241.49 117,-231.49 113.5,-241.49 120.5,-241.49"/>
<text text-anchor="middle" x="190.86" y="-261.4" font-family="Times,serif" font-size="14.00">Fast Path</text>
</g>
<!-- GenericHandler -->
<g id="node7" class="node">
<title>GenericHandler</title>
<ellipse fill="lightyellow" stroke="black" cx="302" cy="-122.8" rx="75.11" ry="18"/>
<text text-anchor="middle" x="302" y="-118.6" font-family="Times,serif" font-size="14.00">Generic Handler</text>
</g>
<!-- MsgUnpack_ParseWithSchema&#45;&gt;GenericHandler -->
<g id="edge7" class="edge">
<title>MsgUnpack_ParseWithSchema-&gt;GenericHandler</title>
<path fill="none" stroke="black" d="M302,-193.2C302,-193.2 302,-152.69 302,-152.69"/>
<polygon fill="black" stroke="black" points="305.5,-152.69 302,-142.69 298.5,-152.69 305.5,-152.69"/>
<text text-anchor="middle" x="333.63" y="-163" font-family="Times,serif" font-size="14.00">Parsed Data</text>
</g>
<!-- FastPathNotification -->
<g id="node8" class="node">
<title>FastPathNotification</title>
<ellipse fill="lightyellow" stroke="black" cx="113" cy="-122.8" rx="95.79" ry="18"/>
<text text-anchor="middle" x="113" y="-118.6" font-family="Times,serif" font-size="14.00">Fast Path Notification</text>
</g>
<!-- HardcodedParsing&#45;&gt;FastPathNotification -->
<g id="edge8" class="edge">
<title>HardcodedParsing-&gt;FastPathNotification</title>
<path fill="none" stroke="black" d="M117,-193.2C117,-193.2 117,-152.69 117,-152.69"/>
<polygon fill="black" stroke="black" points="120.5,-152.69 117,-142.69 113.5,-152.69 120.5,-152.69"/>
<text text-anchor="middle" x="170.56" y="-163" font-family="Times,serif" font-size="14.00">Notification Trigger</text>
</g>
<!-- Event_Factory_QueueEvent -->
<g id="node9" class="node">
<title>Event_Factory_QueueEvent</title>
<polygon fill="lightgreen" stroke="black" points="200.7,-52 25.3,-52 25.3,-16 200.7,-16 200.7,-52"/>
<text text-anchor="middle" x="113" y="-29.8" font-family="Times,serif" font-size="14.00">Event::Factory_QueueEvent</text>
</g>
<!-- FastPathNotification&#45;&gt;Event_Factory_QueueEvent -->
<g id="edge9" class="edge">
<title>FastPathNotification-&gt;Event_Factory_QueueEvent</title>
<path fill="none" stroke="black" d="M113,-104.4C113,-104.4 113,-63.89 113,-63.89"/>
<polygon fill="black" stroke="black" points="116.5,-63.89 113,-53.89 109.5,-63.89 116.5,-63.89"/>
<text text-anchor="middle" x="152.07" y="-74.2" font-family="Times,serif" font-size="14.00">Queues Event</text>
</g>
<!-- GameLogicInitiates -->
<g id="node11" class="node">
<title>GameLogicInitiates</title>
<polygon fill="lightcyan" stroke="black" points="895.09,-426.4 760.91,-426.4 760.91,-390.4 895.09,-390.4 895.09,-426.4"/>
<text text-anchor="middle" x="828" y="-404.2" font-family="Times,serif" font-size="14.00">Game Logic Initiates</text>
</g>
<!-- MsgConn_BuildPacketFromSchema -->
<g id="node12" class="node">
<title>MsgConn_BuildPacketFromSchema</title>
<polygon fill="lightcyan" stroke="black" points="1103.05,-337.6 880.95,-337.6 880.95,-301.6 1103.05,-301.6 1103.05,-337.6"/>
<text text-anchor="middle" x="992" y="-315.4" font-family="Times,serif" font-size="14.00">MsgConn::BuildPacketFromSchema</text>
</g>
<!-- GameLogicInitiates&#45;&gt;MsgConn_BuildPacketFromSchema -->
<g id="edge10" class="edge">
<title>GameLogicInitiates-&gt;MsgConn_BuildPacketFromSchema</title>
<path fill="none" stroke="black" d="M888.02,-390C888.02,-390 888.02,-349.49 888.02,-349.49"/>
<polygon fill="black" stroke="black" points="891.52,-349.49 888.02,-339.49 884.52,-349.49 891.52,-349.49"/>
<text text-anchor="middle" x="1012.32" y="-359.8" font-family="Times,serif" font-size="14.00">Data &amp; Schema</text>
</g>
<!-- MsgConn_FlushPacketBuffer -->
<g id="node17" class="node">
<title>MsgConn_FlushPacketBuffer</title>
<polygon fill="lightcyan" stroke="black" points="920,-283.6 736,-283.6 736,-247.6 920,-247.6 920,-283.6"/>
<text text-anchor="middle" x="828" y="-261.4" font-family="Times,serif" font-size="14.00">MsgConn::FlushPacketBuffer</text>
</g>
<!-- GameLogicInitiates&#45;&gt;MsgConn_FlushPacketBuffer -->
<g id="edge14" class="edge">
<title>GameLogicInitiates-&gt;MsgConn_FlushPacketBuffer</title>
<path fill="none" stroke="black" d="M820.93,-390.02C820.93,-390.02 820.93,-295.42 820.93,-295.42"/>
<polygon fill="black" stroke="black" points="824.43,-295.42 820.93,-285.42 817.43,-295.42 824.43,-295.42"/>
<text text-anchor="middle" x="874.45" y="-359.8" font-family="Times,serif" font-size="14.00">Buffered Stream</text>
</g>
<!-- Msg_MsgPack -->
<g id="node13" class="node">
<title>Msg_MsgPack</title>
<polygon fill="lightcyan" stroke="black" points="1141.39,-229.6 1040.61,-229.6 1040.61,-193.6 1141.39,-193.6 1141.39,-229.6"/>
<text text-anchor="middle" x="1091" y="-207.4" font-family="Times,serif" font-size="14.00">Msg::MsgPack</text>
</g>
<!-- MsgConn_BuildPacketFromSchema&#45;&gt;Msg_MsgPack -->
<g id="edge11" class="edge">
<title>MsgConn_BuildPacketFromSchema-&gt;Msg_MsgPack</title>
<path fill="none" stroke="black" d="M1071.83,-301.28C1071.83,-301.28 1071.83,-241.52 1071.83,-241.52"/>
<polygon fill="black" stroke="black" points="1075.33,-241.52 1071.83,-231.52 1068.33,-241.52 1075.33,-241.52"/>
<text text-anchor="middle" x="1100.68" y="-261.4" font-family="Times,serif" font-size="14.00">Serialization Request</text>
</g>
<!-- MsgConn_QueuePacket -->
<g id="node15" class="node">
<title>MsgConn_QueuePacket</title>
<polygon fill="lightcyan" stroke="black" points="1022.43,-229.6 869.57,-229.6 869.57,-193.6 1022.43,-193.6 1022.43,-229.6"/>
<text text-anchor="middle" x="946" y="-207.4" font-family="Times,serif" font-size="14.00">MsgConn::QueuePacket</text>
</g>
<!-- MsgConn_BuildPacketFromSchema&#45;&gt;MsgConn_QueuePacket -->
<g id="edge13" class="edge">
<title>MsgConn_BuildPacketFromSchema-&gt;MsgConn_QueuePacket</title>
<path fill="none" stroke="black" d="M971.22,-301.28C971.22,-301.28 971.22,-241.52 971.22,-241.52"/>
<polygon fill="black" stroke="black" points="974.72,-241.52 971.22,-231.52 967.72,-241.52 974.72,-241.52"/>
<text text-anchor="middle" x="980.51" y="-261.4" font-family="Times,serif" font-size="14.00">Direct Queue</text>
</g>
<!-- Msg_WriteDataToBuffer -->
<g id="node14" class="node">
<title>Msg_WriteDataToBuffer</title>
<polygon fill="lightcyan" stroke="black" points="1159.53,-140.8 1000.47,-140.8 1000.47,-104.8 1159.53,-104.8 1159.53,-140.8"/>
<text text-anchor="middle" x="1080" y="-118.6" font-family="Times,serif" font-size="14.00">Msg::WriteDataToBuffer</text>
</g>
<!-- Msg_MsgPack&#45;&gt;Msg_WriteDataToBuffer -->
<g id="edge12" class="edge">
<title>Msg_MsgPack-&gt;Msg_WriteDataToBuffer</title>
<path fill="none" stroke="black" d="M1091,-193.2C1091,-193.2 1091,-152.69 1091,-152.69"/>
<polygon fill="black" stroke="black" points="1094.5,-152.69 1091,-142.69 1087.5,-152.69 1094.5,-152.69"/>
<text text-anchor="middle" x="1119.35" y="-163" font-family="Times,serif" font-size="14.00">Writes Bytes</text>
</g>
<!-- MsgConn_EnqueuePacket -->
<g id="node16" class="node">
<title>MsgConn_EnqueuePacket</title>
<polygon fill="lightcyan" stroke="black" points="941.66,-140.8 776.34,-140.8 776.34,-104.8 941.66,-104.8 941.66,-140.8"/>
<text text-anchor="middle" x="859" y="-118.6" font-family="Times,serif" font-size="14.00">MsgConn::EnqueuePacket</text>
</g>
<!-- MsgConn_QueuePacket&#45;&gt;MsgConn_EnqueuePacket -->
<g id="edge15" class="edge">
<title>MsgConn_QueuePacket-&gt;MsgConn_EnqueuePacket</title>
<path fill="none" stroke="black" d="M905.61,-193.2C905.61,-193.2 905.61,-152.69 905.61,-152.69"/>
<polygon fill="black" stroke="black" points="909.11,-152.69 905.61,-142.69 902.11,-152.69 909.11,-152.69"/>
<text text-anchor="middle" x="943.4" y="-163" font-family="Times,serif" font-size="14.00">Queues Packet</text>
</g>
<!-- NetworkTransmission -->
<g id="node18" class="node">
<title>NetworkTransmission</title>
<polygon fill="lightcyan" stroke="black" points="930.96,-52 787.04,-52 787.04,-16 930.96,-16 930.96,-52"/>
<text text-anchor="middle" x="859" y="-29.8" font-family="Times,serif" font-size="14.00">Network Transmission</text>
</g>
<!-- MsgConn_EnqueuePacket&#45;&gt;NetworkTransmission -->
<g id="edge17" class="edge">
<title>MsgConn_EnqueuePacket-&gt;NetworkTransmission</title>
<path fill="none" stroke="black" d="M859,-104.4C859,-104.4 859,-63.89 859,-63.89"/>
<polygon fill="black" stroke="black" points="862.5,-63.89 859,-53.89 855.5,-63.89 862.5,-63.89"/>
<text text-anchor="middle" x="902.54" y="-74.2" font-family="Times,serif" font-size="14.00">Ready for Send</text>
</g>
<!-- MsgConn_FlushPacketBuffer&#45;&gt;MsgConn_EnqueuePacket -->
<g id="edge16" class="edge">
<title>MsgConn_FlushPacketBuffer-&gt;MsgConn_EnqueuePacket</title>
<path fill="none" stroke="black" d="M822.96,-247.22C822.96,-247.22 822.96,-152.62 822.96,-152.62"/>
<polygon fill="black" stroke="black" points="826.46,-152.62 822.96,-142.62 819.46,-152.62 826.46,-152.62"/>
<text text-anchor="middle" x="802.61" y="-207.4" font-family="Times,serif" font-size="14.00">Flushes to Queue</text>
</g>
<!-- GcSrv_Dispatch -->
<g id="node19" class="node">
<title>GcSrv_Dispatch</title>
<polygon fill="plum" stroke="black" points="853.66,-538 744.34,-538 744.34,-502 853.66,-502 853.66,-538"/>
<text text-anchor="middle" x="799" y="-515.8" font-family="Times,serif" font-size="14.00">GcSrv::Dispatch</text>
</g>
<!-- GcSrv_Dispatch&#45;&gt;MsgConn_Dispatch -->
<g id="edge18" class="edge">
<title>GcSrv_Dispatch-&gt;MsgConn_Dispatch</title>
<path fill="none" stroke="black" stroke-dasharray="1,5" d="M749.86,-501.61C749.86,-471.35 749.86,-414.4 749.86,-414.4 749.86,-414.4 460.9,-414.4 460.9,-414.4"/>
<polygon fill="black" stroke="black" points="460.9,-410.9 450.9,-414.4 460.9,-417.9 460.9,-410.9"/>
<text text-anchor="middle" x="610.35" y="-471.4" font-family="Times,serif" font-size="14.00">Triggers Dispatch</text>
</g>
<!-- GcSrv_Dispatch&#45;&gt;GameLogicInitiates -->
<g id="edge20" class="edge">
<title>GcSrv_Dispatch-&gt;GameLogicInitiates</title>
<path fill="none" stroke="black" stroke-dasharray="1,5" d="M807.28,-501.57C807.28,-501.57 807.28,-438.37 807.28,-438.37"/>
<polygon fill="black" stroke="black" points="810.78,-438.37 807.28,-428.37 803.78,-438.37 810.78,-438.37"/>
<text text-anchor="middle" x="859.26" y="-471.4" font-family="Times,serif" font-size="14.00">Triggers Game Logic</text>
</g>
<!-- GcSrv_Dispatch&#45;&gt;MsgConn_BuildPacketFromSchema -->
<g id="edge21" class="edge">
<title>GcSrv_Dispatch-&gt;MsgConn_BuildPacketFromSchema</title>
<path fill="none" stroke="black" stroke-dasharray="1,5" d="M755.39,-501.51C755.39,-451.9 755.39,-319.6 755.39,-319.6 755.39,-319.6 869.11,-319.6 869.11,-319.6"/>
<polygon fill="black" stroke="black" points="869.11,-323.1 879.11,-319.6 869.11,-316.1 869.11,-323.1"/>
<text text-anchor="middle" x="1162.63" y="-404.2" font-family="Times,serif" font-size="14.00">Builds/Queues Packet</text>
</g>
<!-- GcGameCmd_Handler -->
<g id="node20" class="node">
<title>GcGameCmd_Handler</title>
<polygon fill="plum" stroke="black" points="725.92,-538 580.08,-538 580.08,-502 725.92,-502 725.92,-538"/>
<text text-anchor="middle" x="653" y="-515.8" font-family="Times,serif" font-size="14.00">GcGameCmd::Handler</text>
</g>
<!-- GcGameCmd_Handler&#45;&gt;MsgConn_Dispatch -->
<g id="edge19" class="edge">
<title>GcGameCmd_Handler-&gt;MsgConn_Dispatch</title>
<path fill="none" stroke="black" d="M579.6,-520C516.4,-520 435.3,-520 435.3,-520 435.3,-520 435.3,-438.34 435.3,-438.34"/>
<polygon fill="black" stroke="black" points="438.8,-438.34 435.3,-428.34 431.8,-438.34 438.8,-438.34"/>
<text text-anchor="middle" x="489.44" y="-471.4" font-family="Times,serif" font-size="14.00">Feeds Raw Input</text>
</g>
<!-- GcGameCmd_Handler&#45;&gt;GameLogicInitiates -->
<g id="edge22" class="edge">
<title>GcGameCmd_Handler-&gt;GameLogicInitiates</title>
<path fill="none" stroke="black" d="M653,-501.62C653,-468.55 653,-402.4 653,-402.4 653,-402.4 749.08,-402.4 749.08,-402.4"/>
<polygon fill="black" stroke="black" points="749.08,-405.9 759.08,-402.4 749.08,-398.9 749.08,-405.9"/>
<text text-anchor="middle" x="730.07" y="-471.4" font-family="Times,serif" font-size="14.00">Initiates Actions</text>
</g>
<!-- ArenaWeb_RegisterApiEndpoints -->
<g id="node21" class="node">
<title>ArenaWeb_RegisterApiEndpoints</title>
<polygon fill="plum" stroke="black" points="1080.42,-538 871.58,-538 871.58,-502 1080.42,-502 1080.42,-538"/>
<text text-anchor="middle" x="976" y="-515.8" font-family="Times,serif" font-size="14.00">ArenaWeb::RegisterApiEndpoints</text>
</g>
<!-- ArenaWeb_RegisterApiEndpoints&#45;&gt;GameLogicInitiates -->
<g id="edge23" class="edge">
<title>ArenaWeb_RegisterApiEndpoints-&gt;GameLogicInitiates</title>
<path fill="none" stroke="black" stroke-dasharray="1,5" d="M883.33,-501.57C883.33,-501.57 883.33,-438.37 883.33,-438.37"/>
<polygon fill="black" stroke="black" points="886.83,-438.37 883.33,-428.37 879.83,-438.37 886.83,-438.37"/>
<text text-anchor="middle" x="1014.34" y="-471.4" font-family="Times,serif" font-size="14.00">Web UI Triggers Actions</text>
</g>
</g>
</svg>